<?xml version="1.0" encoding="UTF-8" standalone="no"?><svg xmlns="http://www.w3.org/2000/svg" xmlns:xlink="http://www.w3.org/1999/xlink" fill="#000000" height="100%" preserveAspectRatio="xMidYMid meet" version="1" viewBox="13.4 21.8 93.3 76.4" width="100%" zoomAndPan="magnify"><g><g><g id="change1_1"><path d="M94.9,50.9h-1c0-8-6.4-14.5-14.5-14.5c-2.6,0-5.1,0.7-7.1,1.9C68.5,28.6,59,21.8,47.9,21.8 c-14.5,0-26.2,11.8-26.2,26.2c0,1.1,0.1,2.3,0.3,3.3c-5,1.3-8.6,5.8-8.6,11.2c0,6.4,5.2,11.7,11.7,11.7H95 c6.4,0,11.7-5.2,11.7-11.7S101.3,50.9,94.9,50.9z" fill="#ffffff"/></g></g><g id="change2_1"><circle cx="59" cy="73.1" fill="#46a9ff" r="25.1"/></g><g id="change3_1"><path d="M59,51.6c-11.9,0-21.5,9.7-21.5,21.5S47.1,94.7,59,94.7S80.5,85,80.5,73.1S70.9,51.6,59,51.6z M52.3,62.6 c1.4-2.8,3.4-5.3,5.7-7.3v8.4C56,63.7,54.1,63.3,52.3,62.6z M58.1,65.8v6.4h-8.2c0.1-2.7,0.7-5.4,1.6-7.7 C53.6,65.2,55.8,65.6,58.1,65.8z M56.9,53.8c-2.6,2.2-4.8,5-6.3,8.1c-1.7-0.8-3.2-1.9-4.6-3.1C48.9,56.1,52.6,54.3,56.9,53.8z M44.6,60.1c1.5,1.5,3.3,2.6,5.2,3.5c-1.1,2.7-1.7,5.5-1.8,8.5h-8.4C39.8,67.5,41.7,63.3,44.6,60.1z M39.6,74.1h8.3 c0.1,3,0.7,5.9,1.8,8.5c-1.9,0.9-3.7,2.1-5.2,3.5C41.7,82.9,39.8,78.7,39.6,74.1z M45.9,87.5c1.4-1.2,3-2.3,4.6-3.1 c1.5,3.1,3.7,5.9,6.3,8.1C52.6,91.9,48.9,90.1,45.9,87.5z M58.1,90.9c-2.4-2.1-4.4-4.5-5.8-7.4c1.8-0.7,3.7-1.1,5.7-1.1L58.1,90.9 L58.1,90.9z M58.1,80.5c-2.3,0.1-4.5,0.6-6.5,1.3c-1-2.4-1.6-5-1.7-7.7h8.2V80.5z M78.4,72.1H70c-0.1-3-0.7-5.8-1.8-8.5 c1.9-0.9,3.7-2.1,5.2-3.5C76.3,63.4,78.2,67.5,78.4,72.1z M72.1,58.8c-1.4,1.2-3,2.3-4.6,3.1c-1.5-3.1-3.7-5.9-6.3-8.1 C65.4,54.3,69.1,56.1,72.1,58.8z M60,55.4c2.4,2,4.4,4.5,5.7,7.4c-1.8,0.7-3.7,1.1-5.7,1.1V55.4z M60,65.8c2.2-0.1,4.4-0.6,6.5-1.3 c1,2.4,1.6,5,1.7,7.7H60V65.8z M60,74.1h8.2c-0.1,2.7-0.7,5.4-1.7,7.7c-2-0.8-4.2-1.2-6.5-1.3C60,80.5,60,74.1,60,74.1z M60,82.4 c2,0.1,3.9,0.5,5.7,1.1c-1.4,2.8-3.4,5.3-5.7,7.4V82.4z M61.1,92.4c2.6-2.2,4.8-5,6.3-8.1c1.7,0.8,3.2,1.9,4.6,3.1 C69.1,90.1,65.4,91.9,61.1,92.4z M73.4,86.1c-1.6-1.5-3.3-2.6-5.2-3.5c1.1-2.6,1.7-5.5,1.8-8.5h8.3C78.2,78.7,76.3,82.9,73.4,86.1z" fill="#ffffff"/></g></g></svg>