<?xml version="1.0" encoding="UTF-8" standalone="no"?><svg xmlns="http://www.w3.org/2000/svg" xmlns:xlink="http://www.w3.org/1999/xlink" fill="#000000" height="521.6" preserveAspectRatio="xMidYMid meet" version="1" viewBox="0.0 78.4 1500.0 521.6" width="1500" zoomAndPan="magnify"><g id="change1_1"><path d="M 0 339.023438 L 0 600 L 1500 600 L 1500 379.6875 C 1500 258.515625 1499.53125 159.375 1499.0625 159.375 C 1497.421875 159.375 1453.945312 168.28125 1436.132812 172.265625 C 1411.171875 177.773438 1350.234375 193.476562 1320.117188 202.148438 C 1267.5 217.265625 1219.921875 232.265625 1086.914062 275.976562 C 984.726562 309.492188 951.679688 319.921875 907.03125 332.695312 C 774.609375 370.546875 671.835938 386.71875 563.789062 386.71875 C 407.34375 386.71875 291.5625 355.078125 192.421875 285.46875 C 126.796875 239.296875 61.054688 170.273438 12.65625 96.679688 C 6.328125 87.070312 0.820312 78.984375 0.585938 78.632812 C 0.234375 78.398438 0 195.585938 0 339.023438 Z M 0 339.023438" fill="#ffffff"/></g></svg>