<?xml version="1.0" encoding="UTF-8" standalone="no"?><svg xmlns="http://www.w3.org/2000/svg" xmlns:xlink="http://www.w3.org/1999/xlink" fill="#ffffff" height="472" preserveAspectRatio="xMidYMid meet" version="1" viewBox="23.8 20.0 464.4 472.0" width="464.4" zoomAndPan="magnify"><g id="change1_1"><path clip-rule="evenodd" d="M283.245,42.659c12.081,2.875,23.62,7.665,34.194,14.176l22.22-9.868l26.188,26.188l-9.865,22.213 c6.513,10.576,11.303,22.119,14.178,34.203l22.67,8.726v37.035l-22.675,8.728c-2.875,12.081-7.665,23.62-14.176,34.194l9.868,22.22 l-26.188,26.188l-22.213-9.866c-10.576,6.513-22.12,11.303-34.203,14.178l-8.725,22.669h-37.036l-8.728-22.675 c-12.081-2.875-23.619-7.665-34.194-14.176l-22.22,9.869l-26.188-26.188l9.866-22.213c-6.514-10.576-11.303-22.12-14.178-34.204 l-22.67-8.726v-37.035l22.673-8.727c2.875-12.082,7.665-23.622,14.177-34.197l-9.867-22.217l26.188-26.189l22.22,9.869 c10.575-6.511,22.113-11.301,34.195-14.176l8.728-22.675h37.035L283.245,42.659L283.245,42.659z M424.717,457.655l-135.857-1.167 c-0.21,0.016-0.422,0.025-0.636,0.025l-0.001-0.031l-0.062-0.001c-1.097-0.009-2.108,0.44-2.853,1.172 c-0.655,0.644-1.096,1.493-1.201,2.427l0.007,0.333l-0.03,0.001l-0.227,26.35c-0.009,1.097,0.44,2.109,1.172,2.853 c0.734,0.746,1.735,1.215,2.823,1.224l136.556,1.173c1.097,0.009,2.108-0.44,2.853-1.172c0.746-0.734,1.215-1.734,1.224-2.823 l0.226-26.287c0.009-1.097-0.441-2.109-1.172-2.853C426.806,458.133,425.806,457.664,424.717,457.655L424.717,457.655z M293.211,476.79c-1.667-4.192,0.38-8.942,4.573-10.608c4.192-1.667,8.941,0.38,10.608,4.573c1.667,4.192-0.38,8.942-4.573,10.608 C299.627,483.029,294.878,480.982,293.211,476.79L293.211,476.79z M223.839,456.482l-0.062,0.001v0.031 c-0.215,0-0.427-0.009-0.637-0.025l-135.857,1.167c-1.089,0.009-2.089,0.478-2.823,1.224c-0.732,0.745-1.182,1.756-1.172,2.853 l0.226,26.287c0.009,1.089,0.478,2.09,1.224,2.823c0.744,0.732,1.756,1.182,2.853,1.172l136.556-1.173 c1.089-0.009,2.089-0.478,2.823-1.224c0.732-0.744,1.182-1.756,1.172-2.853l-0.227-26.35h-0.03l0.007-0.334 c-0.104-0.934-0.546-1.783-1.201-2.427C225.947,456.923,224.936,456.473,223.839,456.482L223.839,456.482z M218.789,470.754 c1.667,4.192-0.38,8.942-4.573,10.608c-4.192,1.667-8.941-0.38-10.608-4.573c-1.667-4.192,0.38-8.942,4.572-10.608 C212.373,464.515,217.122,466.562,218.789,470.754L218.789,470.754z M199.607,440.752l0.105-69.506 c0.013-8.53-0.529-16.752-2.617-24.122c-1.92-6.778-5.231-12.896-10.822-17.936c-4.436-3.999-8.91-7.77-13.858-11.94 c-15.261-12.862-34.666-29.217-50.716-48.083c-3.208-2.751-7.148-4.184-11.019-4.184v-0.031c-3.704,0-7.373,1.375-10.23,4.232 c-2.906,2.905-4.433,6.166-4.515,9.508c-0.076,3.141,1.047,6.589,3.418,10.156c12.416,14.256,26.344,26.865,39.68,40.201 c3.124,3.124,3.124,8.189,0,11.312c-3.124,3.124-8.189,3.124-11.312,0c-15.813-15.813-32.205-30.707-46.369-48.137 c-4.689-5.772-8.304-11.883-10.761-18.466c-2.473-6.628-3.74-13.655-3.712-21.211l0.36-94.364 c0.09-23.885-5.577-36.023-12.79-40.732c-2.283-1.491-4.747-2.193-7.194-2.271c-2.603-0.083-5.243,0.514-7.695,1.61 c-5.915,2.644-10.49,7.909-10.643,13.333l-4.922,173.711c-0.193,6.819,0.925,13.177,3.285,19.025 c2.37,5.873,6.064,11.309,11.007,16.252l78.573,78.573c1.738,1.738,2.508,4.077,2.312,6.348l0,17.409L199.607,440.752 L199.607,440.752z M312.393,440.752l80.436,0.691l0-17.409c-0.196-2.271,0.575-4.61,2.312-6.348l78.573-78.573 c4.944-4.943,8.638-10.379,11.008-16.252c2.359-5.848,3.477-12.206,3.285-19.025l-4.922-173.711 c-0.153-5.424-4.728-10.69-10.643-13.333c-2.453-1.096-5.092-1.693-7.695-1.61c-2.447,0.078-4.91,0.78-7.194,2.271 c-7.214,4.709-12.88,16.848-12.79,40.732l0.36,94.364c0.028,7.556-1.238,14.583-3.712,21.211 c-2.457,6.584-6.072,12.694-10.761,18.466c-14.161,17.431-30.556,32.325-46.368,48.137c-3.124,3.124-8.189,3.124-11.312,0 c-3.124-3.124-3.124-8.189,0-11.312c13.336-13.336,27.264-25.945,39.68-40.201c2.371-3.567,3.494-7.014,3.418-10.156 c-0.081-3.342-1.609-6.603-4.514-9.508c-2.858-2.858-6.526-4.232-10.23-4.232v0.031c-3.872,0-7.811,1.433-11.019,4.184 c-16.051,18.866-35.455,35.221-50.716,48.083c-4.948,4.17-9.422,7.941-13.858,11.94c-5.591,5.039-8.902,11.158-10.822,17.936 c-2.088,7.37-2.63,15.591-2.617,24.122L312.393,440.752L312.393,440.752z M286.941,129.404 c-4.393-10.462-12.757-16.507-21.952-18.837c-0.329-0.083-0.658-0.162-0.99-0.235v-4.171c0-4.418-3.582-8-8-8c-4.418,0-8,3.582-8,8 v4.287c-13.324,3.094-23.674,13.576-22.978,27.914c0.812,16.736,15.175,23.644,29.77,26.04c7.06,1.159,17.768,3.508,18.809,12.089 c0.065,0.536,0.099,0.897,0.104,1.088c0.166,6.974-8.408,9.689-14.01,10.369c-1.116,0.135-2.065,0.212-2.837,0.23 c-7.966,0.19-16.695-3.343-18.788-11.736c-1.053-4.28-5.376-6.896-9.656-5.844c-4.28,1.053-6.896,5.376-5.844,9.656 c3.114,12.489,13.157,20.544,25.429,23.049v4.166c0,4.418,3.582,8,8,8c4.418,0,8-3.582,8-8v-4.009 c13.565-2.416,26.003-11.147,25.642-26.255c-0.023-1.002-0.079-1.868-0.166-2.589c-2.083-17.155-17.019-23.485-32.122-25.964 c-6.19-1.017-16.019-3.285-16.395-11.04c-0.322-6.646,5.303-10.576,11.201-11.763c2.884-0.581,5.986-0.534,8.955,0.218 c4.634,1.175,8.854,4.231,11.077,9.525c1.708,4.073,6.396,5.99,10.469,4.281C286.733,138.164,288.649,133.477,286.941,129.404 L286.941,129.404z M256,68.768c-48.626,0-88.047,39.421-88.047,88.047c0,48.625,39.422,88.047,88.047,88.047 s88.046-39.421,88.046-88.047C344.046,108.189,304.625,68.768,256,68.768L256,68.768z M256,84.768 c-39.792,0-72.047,32.255-72.047,72.047c0,39.792,32.255,72.047,72.047,72.047s72.046-32.255,72.046-72.047 S295.791,84.768,256,84.768z" fill-rule="evenodd"/></g></svg>