<?xml version="1.0" encoding="UTF-8" standalone="no"?><svg xmlns="http://www.w3.org/2000/svg" xmlns:xlink="http://www.w3.org/1999/xlink" fill="#ffffff" height="232.7" preserveAspectRatio="xMidYMid meet" version="1" viewBox="-2.7 0.0 395.3 232.7" width="395.3" zoomAndPan="magnify"><defs><clipPath id="a"><path d="M 96 112 L 297 112 L 297 232.671875 L 96 232.671875 Z M 96 112"/></clipPath><clipPath id="b"><path d="M 256 94 L 392.671875 94 L 392.671875 191 L 256 191 Z M 256 94"/></clipPath></defs><g><g id="change1_2"><path d="M 138.542969 57.652344 C 138.542969 25.8125 164.355469 0.00390625 196.191406 0.00390625 C 228.03125 0.00390625 253.84375 25.8125 253.84375 57.652344 C 253.84375 89.492188 228.03125 115.304688 196.191406 115.304688 C 164.355469 115.304688 138.542969 89.492188 138.542969 57.652344" fill="inherit"/></g><g clip-path="url(#a)" id="change1_1"><path d="M 295.273438 201.148438 L 287.054688 169.460938 C 280.351562 143.640625 262.269531 123.160156 239.023438 112.820312 C 227.195312 122.019531 212.339844 127.511719 196.191406 127.511719 C 180.046875 127.511719 165.191406 122.019531 153.359375 112.820312 C 130.113281 123.160156 112.03125 143.640625 105.332031 169.460938 L 97.113281 201.148438 C 92.972656 217.101562 105.015625 232.667969 121.5 232.667969 L 270.886719 232.667969 C 287.371094 232.667969 299.414062 217.101562 295.273438 201.148438" fill="inherit"/></g><g id="change1_3"><path d="M 33.820312 50.269531 C 33.820312 24.785156 54.480469 4.125 79.964844 4.125 C 105.449219 4.125 126.109375 24.785156 126.109375 50.269531 C 126.109375 75.753906 105.449219 96.414062 79.964844 96.414062 C 54.480469 96.414062 33.820312 75.753906 33.820312 50.269531" fill="inherit"/></g><g id="change1_4"><path d="M 94.757812 169.035156 C 101.167969 144.335938 116.453125 123.804688 136.660156 110.488281 C 130.363281 103.691406 122.742188 98.203125 114.246094 94.425781 C 104.777344 101.789062 92.886719 106.1875 79.964844 106.1875 C 67.039062 106.1875 55.148438 101.789062 45.679688 94.425781 C 27.074219 102.699219 12.601562 119.09375 7.238281 139.761719 L 0.65625 165.125 C -2.65625 177.894531 6.984375 190.355469 20.175781 190.355469 L 89.226562 190.355469 L 94.757812 169.035156" fill="inherit"/></g><g id="change1_5"><path d="M 358.847656 50.269531 C 358.847656 24.785156 338.1875 4.125 312.703125 4.125 C 287.21875 4.125 266.558594 24.785156 266.558594 50.269531 C 266.558594 75.753906 287.21875 96.414062 312.703125 96.414062 C 338.1875 96.414062 358.847656 75.753906 358.847656 50.269531" fill="inherit"/></g><g clip-path="url(#b)" id="change1_6"><path d="M 297.90625 169.035156 C 291.5 144.335938 276.214844 123.804688 256.007812 110.488281 C 262.304688 103.691406 269.925781 98.203125 278.421875 94.425781 C 287.890625 101.789062 299.777344 106.1875 312.703125 106.1875 C 325.628906 106.1875 337.515625 101.789062 346.988281 94.425781 C 365.59375 102.699219 380.066406 119.09375 385.429688 139.761719 L 392.011719 165.125 C 395.324219 177.894531 385.683594 190.355469 372.488281 190.355469 L 303.441406 190.355469 L 297.90625 169.035156" fill="inherit"/></g></g></svg>